
<svg viewBox="0 0 21 20" fill="none" xmlns="http://www.w3.org/2000/svg">
<g clip-path="url(#clip0_209_309)">
<path d="M3.67755 15.2427L2.94421 14.8187L11.1229 0.65332L11.8562 1.07732L3.67755 15.2427Z" fill="#E10098"/>
<path d="M2.77557 13.6866H19.1342V14.5346H2.77557V13.6866Z" fill="#E10098"/>
<path d="M11.2815 18.888L3.09955 14.164L3.52355 13.4307L11.7055 18.1547L11.2815 18.888ZM18.3895 6.57471L10.2069 1.85138L10.6309 1.11804L18.8129 5.84204L18.3895 6.57471Z" fill="#E10098"/>
<path d="M3.52556 6.57195L3.10156 5.83861L11.2909 1.11328L11.7149 1.84661L3.52556 6.57195Z" fill="#E10098"/>
<path d="M18.2389 15.2426L10.0589 1.07598L10.7922 0.651978L18.9722 14.8186L18.2389 15.2426ZM3.42419 5.27598H4.27219V14.724H3.42419V5.27598ZM17.6429 5.27598H18.4909V14.724H17.6429V5.27598Z" fill="#E10098"/>
<path d="M11.1376 18.5287L10.7676 17.8874L17.8842 13.7787L18.2542 14.42L11.1376 18.5287Z" fill="#E10098"/>
<path d="M19.6142 15C19.3773 15.4092 18.9879 15.7077 18.5313 15.8303C18.0748 15.9529 17.5882 15.8895 17.1782 15.654C16.7691 15.4171 16.4706 15.0277 16.348 14.5711C16.2254 14.1146 16.2888 13.628 16.5242 13.218C16.7611 12.8089 17.1505 12.5104 17.6071 12.3878C18.0637 12.2652 18.5503 12.3286 18.9602 12.564C19.8182 13.0594 20.1096 14.1474 19.6136 15M5.38557 6.7827C5.14867 7.19182 4.75927 7.49037 4.30268 7.61295C3.84609 7.73554 3.35953 7.67216 2.94957 7.4367C2.54027 7.19979 2.24159 6.81028 2.119 6.35353C1.99641 5.89677 2.0599 5.41005 2.29557 5.00003C2.53248 4.59091 2.92187 4.29236 3.37846 4.16978C3.83505 4.0472 4.32162 4.11058 4.73157 4.34603C5.14069 4.58294 5.43924 4.97233 5.56183 5.42892C5.68441 5.88552 5.62103 6.37275 5.38557 6.7827ZM2.30091 15C2.06545 14.5901 2.00207 14.1035 2.12465 13.6469C2.24724 13.1903 2.54579 12.8009 2.95491 12.564C3.36486 12.3286 3.85142 12.2652 4.30802 12.3878C4.76461 12.5104 5.154 12.8089 5.39091 13.218C5.62636 13.628 5.68974 14.1146 5.56716 14.5711C5.44458 15.0277 5.14603 15.4171 4.73691 15.654C3.87891 16.144 2.79024 15.8534 2.30091 15ZM16.5296 6.78337C16.2941 6.37341 16.2307 5.88685 16.3533 5.43026C16.4759 4.97366 16.7745 4.58427 17.1836 4.34737C17.5935 4.11191 18.0801 4.04853 18.5367 4.17111C18.9933 4.2937 19.3827 4.59225 19.6196 5.00137C19.855 5.41132 19.9184 5.89788 19.7958 6.35448C19.6732 6.81107 19.3747 7.20046 18.9656 7.43737C18.5556 7.67282 18.0691 7.7362 17.6125 7.61362C17.1559 7.49104 16.7665 7.19249 16.5296 6.78337ZM10.9576 20C10.605 20 10.2603 19.8955 9.96711 19.6996C9.67393 19.5036 9.44545 19.2252 9.31054 18.8994C9.17563 18.5736 9.14037 18.2152 9.20921 17.8693C9.27805 17.5235 9.4479 17.2059 9.69727 16.9566C9.94665 16.7073 10.2644 16.5376 10.6102 16.4689C10.956 16.4002 11.3145 16.4356 11.6402 16.5706C11.966 16.7056 12.2443 16.9342 12.4401 17.2275C12.6359 17.5207 12.7404 17.8654 12.7402 18.218C12.739 18.6904 12.5508 19.143 12.2167 19.477C11.8826 19.8109 11.4299 19.999 10.9576 20ZM10.9576 3.56537C10.7234 3.56572 10.4914 3.51985 10.275 3.43038C10.0585 3.34092 9.86186 3.20962 9.69625 3.04402C9.53065 2.87841 9.39935 2.68175 9.30989 2.46531C9.22043 2.24887 9.17455 2.0169 9.17491 1.7827C9.17491 1.31 9.36269 0.856652 9.69694 0.5224C10.0312 0.188147 10.4845 0.000366211 10.9572 0.000366211C11.4299 0.000366211 11.8833 0.188147 12.2175 0.5224C12.5518 0.856652 12.7396 1.31 12.7396 1.7827C12.7398 2.01679 12.6939 2.24863 12.6045 2.46495C12.515 2.68127 12.3837 2.87782 12.2182 3.04335C12.0527 3.20888 11.8561 3.34013 11.6398 3.42959C11.4235 3.51905 11.1917 3.56563 10.9576 3.56537Z" fill="#E10098"/>
</g>
<defs>
<clipPath id="clip0_209_309">
<rect width="20" height="20" fill="white" transform="translate(0.957214)"/>
</clipPath>
</defs>
</svg>
