<svg xmlns="http://www.w3.org/2000/svg" viewBox="0 0 354.22 354.22"><defs><style>.cls-1{fill:#fff;}.cls-2{fill:#231f20;}</style></defs><g id="Layer_2" data-name="Layer 2"><g id="Layer_1-2" data-name="Layer 1"><path class="cls-1" d="M158.22,109.59V226.66q0,21-2.93,31.29a47,47,0,0,1-10,19.81q-13.71,16-36.33,16.05a61.22,61.22,0,0,1-32-8.91l13.36-23.32q10,6.69,18.63,6.68,12.19,0,16.88-9.25,4.92-9.27,4.92-32.35V109.59Z"/><path class="cls-1" d="M327.22,177.11a149,149,0,0,1-32.12,92.81L230,191.51l81.47-81.59A149.46,149.46,0,0,1,327.22,177.11Z"/><path d="M311.26,109.59l.17.33.33-.33Z"/><path class="cls-2" d="M177.11,0A177.11,177.11,0,1,0,354.22,177.11,177.11,177.11,0,0,0,177.11,0Zm118,269.92L230,191.51l81.47-81.59-.17-.33H275.32l-70.43,72.19V109.59H177.58V290.53h27.31V215.65l5.62-5.63,65.07,80.4A150.11,150.11,0,0,1,71,71a150.09,150.09,0,0,1,212.28,0,150.76,150.76,0,0,1,28,38.62h.5l-.33.33a150.43,150.43,0,0,1-16.33,160Z"/><path class="cls-2" d="M130.8,109.59V226.66q0,23.09-4.92,32.35-4.69,9.25-16.88,9.25-8.67,0-18.63-6.68L77,284.9a61.22,61.22,0,0,0,32,8.91q22.62,0,36.33-16.05a47,47,0,0,0,10-19.81q2.93-10.3,2.93-31.29V109.59Z"/><path class="cls-2" d="M311.26,109.59l.17.33.33-.33Z"/></g></g></svg>