
<svg viewBox="0 0 21 18" fill="none" xmlns="http://www.w3.org/2000/svg">
<path d="M17.2932 5.9209C17.0823 5.85059 16.8713 5.78418 16.6604 5.72168C16.6956 5.57715 16.7268 5.43262 16.7581 5.28809C17.2385 2.95996 16.9221 1.08887 15.8557 0.47168C14.8284 -0.118164 13.1526 0.495117 11.4573 1.97168C11.2893 2.11621 11.1252 2.26855 10.969 2.4209C10.8635 2.31934 10.7542 2.21777 10.6448 2.12012C8.86743 0.541992 7.08618 -0.12207 6.01978 0.499023C4.99634 1.09277 4.69165 2.85449 5.12134 5.05762C5.16431 5.27637 5.21118 5.49121 5.26587 5.70996C5.01587 5.78027 4.76978 5.8584 4.53931 5.94043C2.45337 6.66309 0.957275 7.80371 0.957275 8.9834C0.957275 10.2021 2.55103 11.4248 4.71899 12.167C4.89478 12.2256 5.07056 12.2842 5.25024 12.335C5.19165 12.5693 5.14087 12.7998 5.09399 13.0381C4.68384 15.2061 5.00415 16.9248 6.02759 17.5146C7.08228 18.124 8.85571 17.499 10.5823 15.9873C10.719 15.8662 10.8557 15.7412 10.9924 15.6084C11.1643 15.7764 11.344 15.9365 11.5237 16.0928C13.1956 17.5303 14.8479 18.1123 15.8674 17.5225C16.9221 16.9131 17.2659 15.0654 16.8206 12.8154C16.7854 12.6436 16.7463 12.4678 16.7034 12.2881C16.8284 12.2529 16.9495 12.2139 17.0706 12.1748C19.3245 11.4287 20.9573 10.2217 20.9573 8.9834C20.9573 7.7998 19.4182 6.65137 17.2932 5.9209ZM12.0081 2.60449C13.4612 1.33887 14.8167 0.842773 15.4338 1.19824C16.094 1.57715 16.3479 3.1084 15.9338 5.12012C15.9065 5.25293 15.8792 5.38184 15.844 5.51074C14.9768 5.31543 14.0979 5.1748 13.2151 5.09668C12.7073 4.37012 12.1526 3.6748 11.551 3.02246C11.7034 2.87793 11.8518 2.74121 12.0081 2.60449ZM7.48853 11.0107C7.68774 11.3506 7.89087 11.6904 8.10571 12.0225C7.49634 11.9561 6.89087 11.8584 6.29321 11.7295C6.46509 11.167 6.67993 10.585 6.92993 9.99121C7.10962 10.335 7.29321 10.6748 7.48853 11.0107ZM6.30493 6.31152C6.86743 6.18652 7.46509 6.08496 8.08618 6.00684C7.87915 6.33105 7.67603 6.66309 7.48462 6.99902C7.29321 7.33105 7.10571 7.6709 6.92993 8.01465C6.68384 7.43262 6.47681 6.8623 6.30493 6.31152ZM7.37524 9.00293C7.63306 8.46387 7.91431 7.93652 8.21118 7.41699C8.50806 6.89746 8.82837 6.39355 9.16431 5.89746C9.75024 5.85449 10.3479 5.83105 10.9573 5.83105C11.5667 5.83105 12.1682 5.85449 12.7502 5.89746C13.0823 6.38965 13.3987 6.89355 13.6995 7.40918C14.0002 7.9248 14.2815 8.45215 14.5471 8.9873C14.2854 9.52637 14.0041 10.0576 13.7034 10.5811C13.4065 11.1006 13.0901 11.6045 12.7581 12.1045C12.176 12.1475 11.5706 12.167 10.9573 12.167C10.344 12.167 9.75024 12.1475 9.17603 12.1123C8.83618 11.6162 8.51587 11.1084 8.21509 10.5889C7.91431 10.0693 7.63696 9.54199 7.37524 9.00293ZM14.4299 11.0029C14.6292 10.6592 14.8167 10.3115 15.0002 9.95996C15.2502 10.5264 15.469 11.1006 15.6604 11.6904C15.0549 11.8271 14.4417 11.9326 13.8245 12.0029C14.0354 11.6748 14.2346 11.3389 14.4299 11.0029ZM14.9924 8.01465C14.8088 7.6709 14.6213 7.32715 14.426 6.99121C14.2346 6.65918 14.0354 6.33105 13.8284 6.00684C14.4573 6.08496 15.0588 6.19043 15.6213 6.31934C15.4417 6.89746 15.2307 7.45996 14.9924 8.01465ZM10.9651 3.62012C11.3752 4.06543 11.762 4.53418 12.1213 5.01855C11.3479 4.9834 10.5706 4.9834 9.79712 5.01855C10.1799 4.51465 10.5745 4.0459 10.9651 3.62012ZM6.43384 1.22559C7.09009 0.842773 8.54712 1.38965 10.0823 2.74902C10.1799 2.83496 10.2776 2.92871 10.3792 3.02246C9.77368 3.6748 9.21509 4.37012 8.70337 5.09668C7.82056 5.1748 6.94556 5.31152 6.07837 5.50293C6.02759 5.30371 5.98462 5.10059 5.94165 4.89746C5.57446 3.00684 5.81665 1.58105 6.43384 1.22559ZM5.47681 11.5225C5.31274 11.4756 5.15259 11.4248 4.99243 11.3701C4.1604 11.1084 3.21509 10.6943 2.53149 10.1514C2.13696 9.87793 1.87134 9.45605 1.79712 8.9834C1.79712 8.26855 3.03149 7.35449 4.81274 6.7334C5.0354 6.65527 5.26196 6.58496 5.48853 6.51855C5.75415 7.36621 6.07446 8.19824 6.44556 9.00293C6.07056 9.81934 5.74634 10.6631 5.47681 11.5225ZM10.0315 15.3506C9.38696 15.9404 8.64087 16.4092 7.82837 16.7295C7.39478 16.9365 6.89478 16.9561 6.44946 16.7803C5.82837 16.4209 5.57056 15.042 5.92212 13.1865C5.96509 12.9678 6.01196 12.749 6.06665 12.5342C6.94165 12.7217 7.82446 12.8506 8.71899 12.917C9.23462 13.6475 9.80103 14.3467 10.4065 15.0029C10.2815 15.124 10.1565 15.2412 10.0315 15.3506ZM10.9885 14.4014C10.5901 13.9717 10.1917 13.4951 9.80493 12.9834C10.1799 12.999 10.5667 13.0068 10.9573 13.0068C11.3596 13.0068 11.7542 12.999 12.1448 12.9795C11.7854 13.4756 11.3987 13.9482 10.9885 14.4014ZM16.094 15.5732C16.0588 16.0498 15.8245 16.4951 15.4495 16.7959C14.8284 17.1553 13.5042 16.6865 12.0745 15.46C11.9104 15.3193 11.7463 15.167 11.5784 15.0107C12.176 14.3506 12.7268 13.6514 13.2268 12.917C14.1213 12.8428 15.012 12.7061 15.8909 12.5068C15.9299 12.667 15.9651 12.8271 15.9963 12.9834C16.1877 13.8271 16.219 14.7061 16.094 15.5732ZM16.8049 11.374C16.6956 11.4092 16.5862 11.4443 16.4729 11.4756C16.1995 10.624 15.8635 9.79199 15.4768 8.9834C15.8518 8.18652 16.1682 7.36621 16.4338 6.52637C16.637 6.58496 16.8323 6.64746 17.0198 6.70996C18.8401 7.33496 20.1174 8.26465 20.1174 8.97559C20.1174 9.74121 18.7542 10.7295 16.8049 11.374ZM10.9573 10.7881C11.9456 10.7881 12.7463 9.9873 12.7463 8.99902C12.7463 8.01074 11.9456 7.20996 10.9573 7.20996C9.96899 7.20996 9.16821 8.01074 9.16821 8.99902C9.16821 9.9873 9.96899 10.7881 10.9573 10.7881Z" fill="#30C6D3"/>
</svg>
