<svg viewBox="0 0 21 12" fill="none" xmlns="http://www.w3.org/2000/svg">
<path fill-rule="evenodd" clip-rule="evenodd" d="M10.9575 0.0360107C8.29057 0.0360107 6.6242 1.36143 5.95718 4.01226C6.95731 2.68684 8.12401 2.18991 9.45727 2.52107C10.2179 2.70997 10.7619 3.25863 11.3635 3.86608C12.344 4.85524 13.479 5.99999 15.9574 5.99999C18.6239 5.99999 20.2906 4.67458 20.9573 2.02414C19.9575 3.34955 18.7908 3.84649 17.4576 3.51494C16.6965 3.32604 16.1525 2.77737 15.551 2.17032C14.5704 1.18037 13.4359 0.0360107 10.9575 0.0360107ZM5.95718 5.99999C3.29067 5.99999 1.6239 7.32541 0.957275 9.97624C1.95741 8.65083 3.12411 8.15389 4.45697 8.48505C5.21805 8.67395 5.76201 9.22261 6.36358 9.83006C7.34412 10.8192 8.47868 11.964 10.9575 11.964C13.624 11.964 15.2907 10.639 15.9574 7.98812C14.9572 9.31354 13.7905 9.81047 12.4573 9.47931C11.6966 9.29002 11.1526 8.74136 10.5511 8.1343C9.57053 7.14514 8.43557 5.99999 5.95718 5.99999Z" fill="#38BDF8"/>
</svg>
